<svg xmlns="http://www.w3.org/2000/svg" viewBox="0 0 1600 700">
  <rect width="1600" height="700" fill="#f4f3f1"/>
  <path d="M0 535h1600v165H0z" fill="#2a1b12"/>
  <path d="M0 495h1600v40H0z" fill="#c98a3b"/>
  <g fill="none" stroke="#2a1b12" stroke-width="18">
    <ellipse cx="365" cy="310" rx="190" ry="155" fill="#e0a457"/>
    <ellipse cx="365" cy="310" rx="72" ry="58" fill="#f4f3f1"/>
    <path d="M190 355c90 74 261 75 350-2" stroke="#a63a2b"/>
  </g>
  <g transform="translate(665 135)">
    <path d="M35 115h330l-30 270c-2 22-21 39-43 39H108c-22 0-41-17-43-39z" fill="#fff" stroke="#2a1b12" stroke-width="18"/>
    <path d="M365 165h50c72 0 72 124 0 124h-65" fill="none" stroke="#2a1b12" stroke-width="18"/>
    <path d="M88 205h224" stroke="#c98a3b" stroke-width="14" stroke-dasharray="7 20" stroke-linecap="round"/>
    <path d="M130 80c-20-42 27-51 5-96M205 80c-20-42 27-51 5-96M280 80c-20-42 27-51 5-96" fill="none" stroke="#a63a2b" stroke-width="13" stroke-linecap="round"/>
  </g>
  <g transform="translate(1140 225)">
    <path d="M30 230h340l-44 104H74z" fill="#e9dcc4" stroke="#2a1b12" stroke-width="16"/>
    <path d="M70 230c19-120 245-120 260 0" fill="#a63a2b" stroke="#2a1b12" stroke-width="16"/>
    <path d="M92 184h216" stroke="#f6eddd" stroke-width="24"/>
    <path d="M112 142h176" stroke="#4a4a33" stroke-width="18"/>
  </g>
  <text x="70" y="630" fill="#f6eddd" font-family="Arial, sans-serif" font-size="38" font-weight="700" letter-spacing="8">REPLACE WITH YOUR RESTAURANT PHOTO</text>
</svg>
