<svg xmlns="http://www.w3.org/2000/svg" viewBox="0 0 900 540">
  <rect width="900" height="540" fill="#f4f3f1"/>
  <g transform="translate(180 55)" stroke="#2a1b12" stroke-width="18">
    <path d="M65 120h330l-32 278c-2 19-18 34-38 34H135c-20 0-36-15-38-34z" fill="#fff"/>
    <path d="M395 170h48c72 0 72 125 0 125h-63" fill="none"/>
    <path d="M120 215h220" stroke="#c98a3b" stroke-width="15" stroke-dasharray="8 20" stroke-linecap="round"/>
    <path d="M160 84c-22-44 27-52 5-100M230 84c-22-44 27-52 5-100M300 84c-22-44 27-52 5-100" fill="none" stroke="#a63a2b" stroke-width="13" stroke-linecap="round"/>
  </g>
  <rect y="470" width="900" height="70" fill="#2a1b12"/>
  <text x="450" y="515" text-anchor="middle" fill="#f6eddd" font-family="Arial, sans-serif" font-size="27" font-weight="700" letter-spacing="4">COFFEE &amp; DRINKS — REPLACE IMAGE</text>
</svg>
